<?xml version="1.0" standalone="no"?><!DOCTYPE svg PUBLIC "-//W3C//DTD SVG 1.1//EN" "http://www.w3.org/Graphics/SVG/1.1/DTD/svg11.dtd"><svg class="icon" height="512" viewBox="0 0 1024 1024" version="1.1" xmlns="http://www.w3.org/2000/svg"><path d="M89.852424 956.034049c-31.281447 0-45.854351-35.236526-45.854351-59.052954V540.042683c-29.205159-15.005762-43.998073-28.14092-43.998073-39.041178v-175.9882c0-51.112098 37.876656-85.453231 94.252641-85.453231h213.733872v-59.740616c0-64.811098 59.990303-111.854531 142.646838-111.85453h109.995183c87.393419 0 155.851581 49.13507 155.85158 111.85453v59.740616h213.727733c54.615898 0 94.257757 35.938514 94.257757 85.453231v175.9882c0 10.900258-14.792914 24.035416-43.99705 39.041178v356.938412c0 29.392424-12.821003 59.052954-41.45618 59.052954h-849.15995z m834.095859-56.518225V567.356772l-10.674107 4.180206c-77.162404 30.224372-172.903955 67.725474-284.795325 84.458577v20.98801c0 25.850761-20.635993 54.652737-50.254567 54.652738H441.834964c-25.286919 0-45.854351-24.517393-45.854351-54.652738v-20.937868c-98.094132-13.667278-197.414185-43.271526-295.470455-88.068801V899.509684h823.438125v0.00614zM571.966767 679.530574V560.054459H452.490651v119.476115h119.476116z m6.257517-175.9882c24.974811 0 50.254567 15.750729 50.254567 45.856398v50.028416c153.717987-21.701255 284.795325-87.880513 334.605778-113.030309l4.860704-2.451842V325.013305c0-14.309914-4.487198-28.941146-37.739533-28.941146H94.252641c-18.548448 0-37.739533 10.825556-37.739533 28.941146v158.936849l4.849448 2.439562c49.810453 25.155936 180.88779 91.341335 334.618057 113.036449v-50.028417c0-30.000268 15.85613-45.856397 45.854351-45.856397h136.38932v0.001023z m81.736583-263.98844v-59.740615c0-30.511921-44.558845-55.335283-99.338473-55.335283H450.633351c-49.108464 0-86.134753 23.790846-86.134753 55.335283v59.740615h295.462269z" /></svg>