<?xml version="1.0" encoding="utf-8"?>
<!-- Generator: Adobe Illustrator 17.0.0, SVG Export Plug-In . SVG Version: 6.00 Build 0)  -->
<!DOCTYPE svg PUBLIC "-//W3C//DTD SVG 1.1//EN" "http://www.w3.org/Graphics/SVG/1.1/DTD/svg11.dtd">
<svg version="1.1" id="Layer_1" xmlns="http://www.w3.org/2000/svg" xmlns:xlink="http://www.w3.org/1999/xlink" x="0px" y="0px"
	 width="324.477px" height="58.398px" viewBox="0 0 324.477 58.398" enable-background="new 0 0 324.477 58.398"
	 xml:space="preserve">
<path fill="#EF6563" d="M311.866-74.563c0,14.176-11.492,25.668-25.668,25.668H37.534c-14.176,0-25.668-11.492-25.668-25.668
	v-248.663c0-14.176,11.492-25.668,25.668-25.668h248.663c14.176,0,25.668,11.492,25.668,25.668V-74.563z"/>
<g>
	<polygon fill="#FFFFFF" points="44.305,-171.913 44.305,-156.112 106.878,-156.112 151.407,-78.895 169.646,-78.895 116,-171.913 	
		"/>
	<polygon fill="#FFFFFF" points="44.305,-137.151 44.305,-121.35 86.808,-121.35 111.273,-78.895 129.508,-78.895 95.93,-137.151 	
		"/>
	<polygon fill="#FFFFFF" points="44.305,-102.389 44.305,-86.588 66.738,-86.588 71.157,-78.895 89.375,-78.895 75.861,-102.389 	
		"/>
	<polygon fill="#FFFFFF" points="210.029,-318.895 191.78,-318.895 126.948,-206.675 44.305,-206.675 44.305,-190.875 
		126.948,-190.875 191.544,-78.895 209.785,-78.895 140.631,-198.769 	"/>
	<polygon fill="#FFFFFF" points="169.888,-318.895 151.638,-318.895 106.878,-241.438 44.305,-241.438 44.305,-225.637 
		116,-225.637 	"/>
	<polygon fill="#FFFFFF" points="129.746,-318.895 111.493,-318.895 86.808,-276.2 44.305,-276.2 44.305,-260.399 95.93,-260.399 	
		"/>
	<polygon fill="#FFFFFF" points="89.598,-318.895 71.333,-318.895 66.738,-310.962 44.305,-310.962 44.305,-295.161 
		75.861,-295.161 	"/>
</g>
<g>
	<g>
		<polygon fill="#EF6563" points="0,35.764 0,39.609 15.225,39.609 26.06,58.398 30.499,58.398 17.445,35.764 		"/>
		<polygon fill="#EF6563" points="0,44.223 0,48.067 10.342,48.067 16.295,58.398 20.732,58.398 12.562,44.223 		"/>
		<polygon fill="#EF6563" points="0,52.681 0,56.526 5.458,56.526 6.534,58.398 10.967,58.398 7.678,52.681 		"/>
		<polygon fill="#EF6563" points="40.325,0 35.884,0 20.109,27.306 0,27.306 0,31.15 20.109,31.15 35.827,58.398 40.265,58.398 
			23.438,29.229 		"/>
		<polygon fill="#EF6563" points="30.557,0 26.117,0 15.225,18.847 0,18.847 0,22.692 17.445,22.692 		"/>
		<polygon fill="#EF6563" points="20.79,0 16.348,0 10.342,10.389 0,10.389 0,14.234 12.562,14.234 		"/>
		<polygon fill="#EF6563" points="11.021,0 6.577,0 5.458,1.93 0,1.93 0,5.775 7.678,5.775 		"/>
	</g>
	<g>
		<path fill="#EF6563" d="M77.793,40.819c0.261,0.34,0.392,0.732,0.392,1.176c0,0.445-0.17,0.823-0.51,1.137
			c-0.34,0.313-0.719,0.47-1.137,0.47c-0.627,0-1.163-0.248-1.607-0.744l-6.741-9.171l-3.41,3.096v5.056
			c0,0.497-0.176,0.915-0.529,1.254c-0.353,0.339-0.778,0.509-1.274,0.509c-0.497,0-0.915-0.17-1.254-0.509
			c-0.34-0.339-0.51-0.758-0.51-1.254V16.402c0-0.496,0.17-0.921,0.51-1.274c0.339-0.353,0.758-0.529,1.254-0.529
			c0.496,0,0.921,0.176,1.274,0.529c0.353,0.353,0.529,0.778,0.529,1.274v16.03l9.328-8.623c0.418-0.339,0.888-0.509,1.411-0.509
			c0.522,0,0.901,0.19,1.137,0.568c0.235,0.379,0.353,0.699,0.353,0.96c0,0.575-0.222,1.085-0.666,1.529l-5.644,5.056L77.793,40.819
			z"/>
		<path fill="#EF6563" d="M102.87,40.506c2.299,0,4.442-1.254,6.428-3.763V24.986c0-0.496,0.176-0.914,0.529-1.254
			c0.353-0.339,0.777-0.509,1.274-0.509c0.496,0,0.914,0.17,1.254,0.509c0.339,0.34,0.509,0.758,0.509,1.254v16.814
			c0,0.523-0.17,0.954-0.509,1.293c-0.34,0.339-0.758,0.509-1.254,0.509c-0.497,0-0.921-0.17-1.274-0.509
			c-0.353-0.339-0.529-0.77-0.529-1.293v-1.607c-1.045,1.097-1.947,1.868-2.704,2.312c-1.489,0.862-2.907,1.293-4.253,1.293
			c-1.346,0-2.449-0.203-3.312-0.607c-0.862-0.405-1.594-0.96-2.195-1.666c-1.229-1.437-1.842-3.239-1.842-5.409V24.986
			c0-0.496,0.176-0.914,0.529-1.254c0.353-0.339,0.777-0.509,1.274-0.509c0.496,0,0.914,0.17,1.254,0.509
			c0.339,0.34,0.51,0.758,0.51,1.254v10.739c0,1.489,0.333,2.659,1,3.508C100.224,40.082,101.328,40.506,102.87,40.506z"/>
		<path fill="#EF6563" d="M135.133,40.663c0.692,0,1.189-0.059,1.489-0.177c0.3-0.118,0.627-0.176,0.98-0.176
			s0.672,0.131,0.96,0.392c0.287,0.262,0.431,0.653,0.431,1.176c0,0.523-0.262,0.901-0.784,1.137
			c-1.124,0.522-2.084,0.784-2.881,0.784c-0.797,0-1.523-0.039-2.175-0.118c-0.653-0.079-1.28-0.3-1.881-0.666
			c-1.437-0.836-2.155-2.299-2.155-4.39v-12.15h-2.783c-0.497,0-0.745-0.248-0.745-0.745c0-0.235,0.118-0.457,0.353-0.666
			l5.33-5.213c0.235-0.235,0.457-0.353,0.666-0.353c0.209,0,0.385,0.079,0.529,0.235c0.143,0.157,0.216,0.34,0.216,0.549v3.135
			h4.429c0.444,0,0.81,0.144,1.097,0.431c0.287,0.288,0.431,0.653,0.431,1.097c0,0.445-0.144,0.81-0.431,1.097
			c-0.288,0.288-0.653,0.431-1.097,0.431h-4.429v11.836c0,0.993,0.3,1.672,0.901,2.038
			C133.924,40.559,134.441,40.663,135.133,40.663z"/>
		<path fill="#EF6563" d="M158.873,40.506c2.299,0,4.442-1.254,6.428-3.763V24.986c0-0.496,0.176-0.914,0.529-1.254
			c0.353-0.339,0.777-0.509,1.274-0.509c0.496,0,0.914,0.17,1.254,0.509c0.339,0.34,0.509,0.758,0.509,1.254v16.814
			c0,0.523-0.17,0.954-0.509,1.293c-0.34,0.339-0.758,0.509-1.254,0.509c-0.497,0-0.921-0.17-1.274-0.509
			c-0.353-0.339-0.529-0.77-0.529-1.293v-1.607c-1.045,1.097-1.947,1.868-2.704,2.312c-1.489,0.862-2.907,1.293-4.253,1.293
			c-1.346,0-2.449-0.203-3.312-0.607c-0.862-0.405-1.594-0.96-2.195-1.666c-1.229-1.437-1.842-3.239-1.842-5.409V24.986
			c0-0.496,0.176-0.914,0.529-1.254c0.353-0.339,0.777-0.509,1.274-0.509c0.496,0,0.914,0.17,1.254,0.509
			c0.339,0.34,0.51,0.758,0.51,1.254v10.739c0,1.489,0.333,2.659,1,3.508C156.227,40.082,157.331,40.506,158.873,40.506z"/>
		<path fill="#EF6563" d="M187.841,26.632c1.593-2.404,3.815-3.606,6.663-3.606c1.411,0,2.691,0.418,3.841,1.254
			c0.941,0.653,1.659,1.581,2.155,2.783c0.731-1.149,1.45-1.96,2.156-2.43c1.489-1.071,3.175-1.607,5.056-1.607
			c2.117,0,3.775,0.81,4.978,2.43c1.045,1.385,1.568,3.084,1.568,5.095v11.287c0,0.497-0.176,0.915-0.529,1.254
			c-0.353,0.339-0.778,0.509-1.274,0.509c-0.497,0-0.915-0.17-1.254-0.509c-0.34-0.339-0.509-0.758-0.509-1.254V31.257
			c0-1.646-0.294-2.881-0.882-3.704c-0.588-0.823-1.627-1.235-3.116-1.235c-2.3,0-4.181,1.254-5.644,3.763v11.758
			c0,0.497-0.176,0.915-0.529,1.254c-0.353,0.339-0.778,0.509-1.274,0.509c-0.497,0-0.915-0.17-1.254-0.509
			c-0.34-0.339-0.51-0.758-0.51-1.254V31.257c0-1.646-0.294-2.881-0.882-3.704s-1.627-1.235-3.116-1.235
			c-2.3,0-4.181,1.254-5.644,3.763v11.758c0,0.497-0.176,0.915-0.529,1.254c-0.353,0.339-0.778,0.509-1.274,0.509
			c-0.497,0-0.915-0.17-1.254-0.509c-0.34-0.339-0.51-0.758-0.51-1.254V25.025c0-0.496,0.17-0.921,0.51-1.274
			c0.339-0.353,0.758-0.529,1.254-0.529c0.496,0,0.921,0.176,1.274,0.529c0.353,0.353,0.529,0.778,0.529,1.274V26.632z"/>
		<path fill="#EF6563" d="M232.566,26.004c1.933-1.985,4.167-2.979,6.702-2.979c2.534,0,4.703,0.901,6.506,2.704
			c1.986,1.986,2.979,4.547,2.979,7.682c0,3.188-0.993,5.761-2.979,7.721c-1.829,1.777-4.004,2.665-6.526,2.665
			c-2.522,0-4.749-0.993-6.682-2.979v1.019c0,0.497-0.17,0.915-0.509,1.254c-0.34,0.339-0.764,0.509-1.274,0.509
			c-0.509,0-0.935-0.17-1.274-0.509c-0.34-0.339-0.509-0.758-0.509-1.254V16.402c0-0.523,0.17-0.954,0.509-1.293
			c0.339-0.339,0.764-0.509,1.274-0.509c0.51,0,0.934,0.17,1.274,0.509c0.339,0.34,0.509,0.771,0.509,1.293V26.004z M232.566,37.527
			c1.776,1.96,3.841,2.94,6.192,2.94c2.979,0,4.964-1.332,5.957-3.998c0.314-0.888,0.47-1.907,0.47-3.057
			c0-2.247-0.601-4.01-1.803-5.291c-1.15-1.176-2.691-1.764-4.625-1.764c-2.352,0-4.416,0.98-6.192,2.94V37.527z"/>
		<path fill="#EF6563" d="M267.356,17.343c0,0.549-0.196,1.019-0.588,1.411c-0.392,0.392-0.862,0.588-1.411,0.588h-0.235
			c-0.549,0-1.019-0.196-1.411-0.588c-0.392-0.392-0.588-0.862-0.588-1.411v-0.157c0-0.549,0.196-1.019,0.588-1.411
			c0.392-0.392,0.862-0.588,1.411-0.588h0.235c0.549,0,1.019,0.196,1.411,0.588c0.392,0.392,0.588,0.862,0.588,1.411V17.343z
			 M263.946,23.731c0.339-0.339,0.764-0.509,1.274-0.509s0.934,0.17,1.274,0.509c0.339,0.34,0.51,0.771,0.51,1.293v16.814
			c0,0.497-0.17,0.915-0.51,1.254c-0.34,0.339-0.764,0.509-1.274,0.509s-0.935-0.17-1.274-0.509
			c-0.34-0.339-0.509-0.758-0.509-1.254V25.025C263.437,24.502,263.607,24.071,263.946,23.731z"/>
		<path fill="#EF6563" d="M289.612,40.663c0.692,0,1.189-0.059,1.49-0.177c0.3-0.118,0.627-0.176,0.98-0.176
			c0.353,0,0.673,0.131,0.96,0.392c0.287,0.262,0.431,0.653,0.431,1.176c0,0.523-0.262,0.901-0.784,1.137
			c-1.124,0.522-2.084,0.784-2.881,0.784c-0.798,0-1.522-0.039-2.175-0.118c-0.653-0.079-1.28-0.3-1.881-0.666
			c-1.438-0.836-2.156-2.299-2.156-4.39v-12.15h-2.783c-0.497,0-0.744-0.248-0.744-0.745c0-0.235,0.118-0.457,0.353-0.666
			l5.33-5.213c0.235-0.235,0.457-0.353,0.666-0.353c0.209,0,0.385,0.079,0.529,0.235c0.143,0.157,0.216,0.34,0.216,0.549v3.135
			h4.429c0.444,0,0.809,0.144,1.097,0.431c0.287,0.288,0.431,0.653,0.431,1.097c0,0.445-0.144,0.81-0.431,1.097
			c-0.288,0.288-0.653,0.431-1.097,0.431h-4.429v11.836c0,0.993,0.3,1.672,0.901,2.038
			C288.403,40.559,288.919,40.663,289.612,40.663z"/>
		<path fill="#EF6563" d="M309.505,24.437c2.195-0.941,4.468-1.411,6.82-1.411c2.665,0,4.729,0.81,6.192,2.43
			c1.306,1.411,1.96,3.175,1.96,5.291v11.092c0,0.497-0.176,0.915-0.529,1.254c-0.353,0.339-0.778,0.509-1.274,0.509
			c-0.497,0-0.915-0.17-1.254-0.509c-0.34-0.339-0.509-0.758-0.509-1.254v-1.019c-0.706,0.732-1.653,1.411-2.842,2.038
			c-1.189,0.627-2.698,0.941-4.527,0.941c-1.803,0-3.306-0.522-4.507-1.568c-1.254-1.097-1.881-2.534-1.881-4.311
			c0-1.933,0.731-3.449,2.195-4.546c1.594-1.201,3.867-1.803,6.82-1.803h4.742v-0.313c0-1.751-0.431-2.998-1.293-3.743
			s-2.182-1.117-3.958-1.117c-1.516,0-3.253,0.313-5.213,0.941c-0.209,0.053-0.445,0.078-0.705,0.078
			c-0.262,0-0.536-0.137-0.823-0.411c-0.288-0.274-0.431-0.699-0.431-1.274C308.486,25.156,308.825,24.725,309.505,24.437z
			 M310.72,37.527c0,2.091,1.385,3.136,4.154,3.136c1.228,0,2.371-0.3,3.43-0.902c1.058-0.601,1.927-1.28,2.606-2.038v-3.292h-4.272
			c-1.856,0-3.306,0.235-4.351,0.705C311.242,35.607,310.72,36.404,310.72,37.527z"/>
	</g>
</g>
<g>
	<g>
		<polygon fill="#EF6563" points="141.013,267.672 141.013,271.652 156.773,271.652 167.989,291.101 172.583,291.101 
			159.071,267.672 		"/>
		<polygon fill="#EF6563" points="141.013,276.428 141.013,280.408 151.718,280.408 157.88,291.101 162.473,291.101 
			154.016,276.428 		"/>
		<polygon fill="#EF6563" points="141.013,285.183 141.013,289.163 146.663,289.163 147.776,291.101 152.365,291.101 
			148.961,285.183 		"/>
		<polygon fill="#EF6563" points="182.754,230.651 178.158,230.651 161.828,258.917 141.013,258.917 141.013,262.896 
			161.828,262.896 178.098,291.101 182.693,291.101 165.275,260.908 		"/>
		<polygon fill="#EF6563" points="172.644,230.651 168.047,230.651 156.773,250.161 141.013,250.161 141.013,254.141 
			159.071,254.141 		"/>
		<polygon fill="#EF6563" points="162.533,230.651 157.936,230.651 151.718,241.405 141.013,241.405 141.013,245.385 
			154.016,245.385 		"/>
		<polygon fill="#EF6563" points="152.421,230.651 147.821,230.651 146.663,232.65 141.013,232.65 141.013,236.629 148.961,236.629 
					"/>
	</g>
	<g>
		<path fill="#EF6563" d="M84.233,333.108c0.176,0.23,0.264,0.494,0.264,0.794c0,0.3-0.115,0.555-0.344,0.767
			c-0.229,0.211-0.485,0.317-0.767,0.317c-0.423,0-0.785-0.167-1.085-0.502l-4.55-6.19l-2.301,2.09v3.412
			c0,0.335-0.119,0.618-0.357,0.846c-0.238,0.229-0.525,0.344-0.86,0.344c-0.335,0-0.617-0.115-0.846-0.344
			c-0.229-0.229-0.344-0.511-0.344-0.846v-17.167c0-0.335,0.115-0.622,0.344-0.86c0.229-0.238,0.511-0.357,0.846-0.357
			c0.335,0,0.622,0.119,0.86,0.357c0.238,0.238,0.357,0.525,0.357,0.86v10.819l6.296-5.82c0.282-0.229,0.599-0.344,0.952-0.344
			c0.353,0,0.608,0.128,0.767,0.383c0.159,0.256,0.238,0.472,0.238,0.648c0,0.388-0.15,0.732-0.45,1.032l-3.809,3.412
			L84.233,333.108z"/>
		<path fill="#EF6563" d="M101.157,332.896c1.552,0,2.998-0.846,4.338-2.539v-7.936c0-0.335,0.119-0.617,0.357-0.846
			c0.238-0.229,0.525-0.344,0.86-0.344c0.335,0,0.617,0.115,0.846,0.344c0.229,0.229,0.344,0.512,0.344,0.846v11.348
			c0,0.353-0.115,0.644-0.344,0.873c-0.229,0.229-0.512,0.344-0.846,0.344c-0.335,0-0.622-0.115-0.86-0.344
			c-0.238-0.229-0.357-0.52-0.357-0.873v-1.084c-0.706,0.741-1.314,1.261-1.825,1.561c-1.005,0.582-1.962,0.873-2.87,0.873
			c-0.908,0-1.653-0.137-2.235-0.41c-0.582-0.273-1.076-0.648-1.481-1.124c-0.829-0.97-1.243-2.186-1.243-3.65v-7.512
			c0-0.335,0.119-0.617,0.357-0.846c0.238-0.229,0.524-0.344,0.86-0.344c0.335,0,0.617,0.115,0.846,0.344
			c0.229,0.229,0.344,0.512,0.344,0.846v7.248c0,1.005,0.225,1.795,0.675,2.367C99.372,332.61,100.117,332.896,101.157,332.896z"/>
		<path fill="#EF6563" d="M122.933,333.002c0.467,0,0.802-0.04,1.005-0.119c0.202-0.079,0.423-0.119,0.661-0.119
			c0.238,0,0.454,0.088,0.648,0.264c0.194,0.177,0.291,0.441,0.291,0.794c0,0.353-0.177,0.608-0.529,0.767
			c-0.758,0.352-1.406,0.529-1.944,0.529c-0.538,0-1.028-0.027-1.468-0.079c-0.441-0.053-0.864-0.203-1.27-0.45
			c-0.97-0.564-1.455-1.552-1.455-2.963v-8.2h-1.878c-0.335,0-0.503-0.167-0.503-0.503c0-0.159,0.079-0.308,0.238-0.45l3.597-3.518
			c0.159-0.159,0.308-0.238,0.45-0.238c0.141,0,0.26,0.053,0.357,0.159c0.097,0.106,0.146,0.229,0.146,0.37v2.116h2.989
			c0.3,0,0.546,0.097,0.741,0.291c0.194,0.194,0.291,0.441,0.291,0.741c0,0.3-0.097,0.547-0.291,0.741
			c-0.194,0.194-0.441,0.291-0.741,0.291h-2.989v7.989c0,0.67,0.202,1.129,0.608,1.375
			C122.117,332.932,122.465,333.002,122.933,333.002z"/>
		<path fill="#EF6563" d="M138.955,332.896c1.552,0,2.998-0.846,4.338-2.539v-7.936c0-0.335,0.119-0.617,0.357-0.846
			c0.238-0.229,0.525-0.344,0.86-0.344c0.335,0,0.617,0.115,0.846,0.344c0.229,0.229,0.344,0.512,0.344,0.846v11.348
			c0,0.353-0.115,0.644-0.344,0.873c-0.229,0.229-0.512,0.344-0.846,0.344c-0.335,0-0.622-0.115-0.86-0.344
			c-0.238-0.229-0.357-0.52-0.357-0.873v-1.084c-0.706,0.741-1.314,1.261-1.825,1.561c-1.005,0.582-1.962,0.873-2.87,0.873
			c-0.908,0-1.653-0.137-2.235-0.41c-0.582-0.273-1.076-0.648-1.481-1.124c-0.829-0.97-1.243-2.186-1.243-3.65v-7.512
			c0-0.335,0.119-0.617,0.357-0.846c0.238-0.229,0.524-0.344,0.86-0.344c0.335,0,0.617,0.115,0.846,0.344
			c0.229,0.229,0.344,0.512,0.344,0.846v7.248c0,1.005,0.225,1.795,0.675,2.367C137.169,332.61,137.914,332.896,138.955,332.896z"/>
		<path fill="#EF6563" d="M158.506,323.532c1.075-1.622,2.575-2.434,4.497-2.434c0.952,0,1.816,0.282,2.592,0.846
			c0.635,0.441,1.12,1.067,1.455,1.878c0.494-0.776,0.979-1.323,1.455-1.64c1.005-0.723,2.143-1.084,3.412-1.084
			c1.428,0,2.548,0.547,3.359,1.64c0.705,0.935,1.058,2.081,1.058,3.439v7.618c0,0.335-0.119,0.618-0.357,0.846
			c-0.238,0.229-0.525,0.344-0.86,0.344c-0.335,0-0.618-0.115-0.846-0.344c-0.229-0.229-0.344-0.511-0.344-0.846v-7.142
			c0-1.111-0.199-1.944-0.595-2.5c-0.397-0.555-1.098-0.833-2.103-0.833c-1.552,0-2.822,0.846-3.809,2.539v7.936
			c0,0.335-0.119,0.618-0.357,0.846c-0.238,0.229-0.525,0.344-0.86,0.344c-0.335,0-0.617-0.115-0.846-0.344
			c-0.23-0.229-0.344-0.511-0.344-0.846v-7.142c0-1.111-0.198-1.944-0.595-2.5s-1.098-0.833-2.103-0.833
			c-1.552,0-2.822,0.846-3.809,2.539v7.936c0,0.335-0.119,0.618-0.357,0.846c-0.238,0.229-0.525,0.344-0.86,0.344
			c-0.335,0-0.617-0.115-0.846-0.344c-0.229-0.229-0.344-0.511-0.344-0.846v-11.348c0-0.335,0.115-0.622,0.344-0.86
			c0.229-0.238,0.511-0.357,0.846-0.357c0.335,0,0.622,0.119,0.86,0.357c0.238,0.238,0.357,0.525,0.357,0.86V323.532z"/>
		<path fill="#EF6563" d="M188.692,323.109c1.305-1.34,2.813-2.01,4.523-2.01c1.71,0,3.174,0.608,4.391,1.825
			c1.34,1.341,2.01,3.069,2.01,5.185c0,2.152-0.67,3.888-2.01,5.211c-1.234,1.2-2.703,1.799-4.404,1.799
			c-1.702,0-3.205-0.67-4.51-2.01v0.688c0,0.335-0.115,0.618-0.344,0.846c-0.23,0.229-0.516,0.344-0.86,0.344
			c-0.344,0-0.631-0.115-0.86-0.344c-0.229-0.229-0.344-0.511-0.344-0.846v-17.167c0-0.353,0.114-0.644,0.344-0.873
			c0.229-0.229,0.516-0.344,0.86-0.344c0.344,0,0.63,0.115,0.86,0.344c0.229,0.229,0.344,0.52,0.344,0.873V323.109z
			 M188.692,330.886c1.199,1.323,2.592,1.984,4.179,1.984c2.01,0,3.35-0.899,4.021-2.698c0.212-0.599,0.318-1.287,0.318-2.063
			c0-1.516-0.406-2.707-1.217-3.571c-0.776-0.793-1.816-1.19-3.121-1.19c-1.587,0-2.98,0.661-4.179,1.984V330.886z"/>
		<path fill="#EF6563" d="M212.172,317.263c0,0.37-0.132,0.688-0.397,0.952c-0.264,0.264-0.582,0.397-0.952,0.397h-0.159
			c-0.37,0-0.688-0.132-0.952-0.397c-0.265-0.264-0.397-0.582-0.397-0.952v-0.106c0-0.37,0.132-0.688,0.397-0.952
			c0.264-0.264,0.582-0.397,0.952-0.397h0.159c0.37,0,0.688,0.132,0.952,0.397c0.265,0.265,0.397,0.582,0.397,0.952V317.263z
			 M209.871,321.575c0.229-0.229,0.516-0.344,0.86-0.344c0.344,0,0.63,0.115,0.86,0.344c0.229,0.229,0.344,0.52,0.344,0.873v11.348
			c0,0.335-0.115,0.618-0.344,0.846c-0.229,0.229-0.516,0.344-0.86,0.344c-0.344,0-0.631-0.115-0.86-0.344
			c-0.229-0.229-0.344-0.511-0.344-0.846v-11.348C209.527,322.095,209.641,321.804,209.871,321.575z"/>
		<path fill="#EF6563" d="M227.193,333.002c0.467,0,0.802-0.04,1.005-0.119c0.202-0.079,0.423-0.119,0.661-0.119
			c0.238,0,0.454,0.088,0.648,0.264c0.194,0.177,0.291,0.441,0.291,0.794c0,0.353-0.177,0.608-0.529,0.767
			c-0.759,0.352-1.406,0.529-1.944,0.529c-0.538,0-1.028-0.027-1.468-0.079c-0.441-0.053-0.864-0.203-1.27-0.45
			c-0.97-0.564-1.455-1.552-1.455-2.963v-8.2h-1.878c-0.335,0-0.502-0.167-0.502-0.503c0-0.159,0.079-0.308,0.238-0.45l3.598-3.518
			c0.159-0.159,0.308-0.238,0.45-0.238c0.141,0,0.26,0.053,0.357,0.159c0.097,0.106,0.145,0.229,0.145,0.37v2.116h2.989
			c0.3,0,0.546,0.097,0.741,0.291c0.194,0.194,0.291,0.441,0.291,0.741c0,0.3-0.097,0.547-0.291,0.741
			c-0.194,0.194-0.441,0.291-0.741,0.291h-2.989v7.989c0,0.67,0.202,1.129,0.608,1.375
			C226.377,332.932,226.725,333.002,227.193,333.002z"/>
		<path fill="#EF6563" d="M240.619,322.051c1.481-0.635,3.016-0.952,4.603-0.952c1.799,0,3.192,0.547,4.179,1.64
			c0.882,0.952,1.323,2.143,1.323,3.571v7.486c0,0.335-0.119,0.618-0.357,0.846c-0.238,0.229-0.525,0.344-0.86,0.344
			c-0.335,0-0.617-0.115-0.846-0.344c-0.229-0.229-0.344-0.511-0.344-0.846v-0.688c-0.476,0.494-1.115,0.952-1.918,1.376
			c-0.803,0.423-1.821,0.635-3.055,0.635c-1.217,0-2.231-0.353-3.042-1.058c-0.846-0.741-1.27-1.71-1.27-2.91
			c0-1.305,0.494-2.328,1.481-3.068c1.076-0.811,2.61-1.217,4.603-1.217h3.201v-0.211c0-1.181-0.291-2.024-0.873-2.526
			s-1.473-0.754-2.672-0.754c-1.023,0-2.196,0.211-3.518,0.635c-0.141,0.036-0.3,0.053-0.476,0.053
			c-0.177,0-0.362-0.092-0.555-0.278c-0.194-0.185-0.291-0.472-0.291-0.86C239.931,322.536,240.16,322.245,240.619,322.051z
			 M241.439,330.886c0,1.411,0.935,2.116,2.804,2.116c0.829,0,1.6-0.203,2.315-0.609c0.714-0.405,1.3-0.864,1.759-1.375v-2.222
			h-2.883c-1.252,0-2.231,0.159-2.936,0.476C241.792,329.59,241.439,330.128,241.439,330.886z"/>
	</g>
</g>
</svg>
